<svg version="1.2" xmlns="http://www.w3.org/2000/svg" viewBox="0 0 132 127" width="132" height="127">
	<title>5-svg</title>
	<defs>
		<linearGradient id="g1" x1="63.3" y1="7.3" x2="61.3" y2="126.3" gradientUnits="userSpaceOnUse">
			<stop offset="0" stop-color="#ffffff" stop-opacity="0"/>
			<stop offset="1" stop-color="#64b5f6" stop-opacity=".6"/>
		</linearGradient>
		<linearGradient id="g2" x1="74.7" y1="61.5" x2="91" y2="91.3" gradientUnits="userSpaceOnUse">
			<stop offset="0" stop-color="#e57373"/>
			<stop offset="1" stop-color="#ad1457"/>
		</linearGradient>
		<linearGradient id="g3" x1="26460" y1="36322.6" x2="24759.5" y2="45029.9" gradientUnits="userSpaceOnUse">
			<stop offset="0" stop-color="#e57373"/>
			<stop offset="1" stop-color="#ad1457"/>
		</linearGradient>
		<linearGradient id="g4" x1="138.5" y1="72.3" x2="92.5" y2="99.9" gradientUnits="userSpaceOnUse">
			<stop offset="0" stop-color="#fff8e1"/>
			<stop offset="1" stop-color="#ffcc80"/>
		</linearGradient>
		<linearGradient id="g5" x1="20346.9" y1="20344.7" x2="17878.8" y2="18618.1" gradientUnits="userSpaceOnUse">
			<stop offset="0" stop-color="#fff8e1"/>
			<stop offset="1" stop-color="#ffcc80"/>
		</linearGradient>
		<linearGradient id="g6" x1="78.7" y1="40.7" x2="53.5" y2="51.5" gradientUnits="userSpaceOnUse">
			<stop offset="0" stop-color="#fff8e1"/>
			<stop offset="1" stop-color="#ffcc80"/>
		</linearGradient>
		<linearGradient id="g7" x1="72.9" y1="13.9" x2="44.4" y2="53.8" gradientUnits="userSpaceOnUse">
			<stop offset="0" stop-color="#ffb74d"/>
			<stop offset="1" stop-color="#f4511e"/>
		</linearGradient>
	</defs>
	<style>
		.s0 { fill: #ffffff } 
		.s1 { fill: url(#g1) } 
		.s2 { fill: url(#g2) } 
		.s3 { fill: url(#g3) } 
		.s4 { fill: url(#g4) } 
		.s5 { fill: #7e57c2 } 
		.s6 { fill: url(#g5) } 
		.s7 { fill: url(#g6) } 
		.s8 { fill: url(#g7) } 
		.s9 { opacity: .1;fill: #000000 } 
	</style>
	<g id="Layer">
		<path id="Layer" class="s0" d="m-116-32.9c0-5.5 4.5-10 10-10h338c5.5 0 10 4.5 10 10v460c0 5.6-4.5 10-10 10h-338c-5.5 0-10-4.4-10-10z"/>
	</g>
	<path id="Layer" class="s1" d="m125.7 61.1c0 8.4-1.8 16.7-5.4 24.4-3.5 7.7-8.6 14.6-15 20.2q-2.7 2.4-5.7 4.5-3.8 2.6-7.9 4.6h-0.1q-0.8 0.5-1.8 0.9-0.4 0.2-0.8 0.4-2.6 1.1-5.4 2.1c-1.4 0.4-2.9 0.9-4.4 1.3-8.7 2.2-17.7 2.6-26.6 1.2q-1.6-0.3-3.1-0.6l-0.9-0.2q-3.9-0.9-7.7-2.3-2.2-0.8-4.3-1.7-0.8-0.4-1.6-0.8-0.6-0.2-1.1-0.5c-9.9-5-18.2-12.4-24-21.5-5.9-9-9.2-19.5-9.5-30.2-0.4-10.7 2.2-21.3 7.6-30.7 5.3-9.4 13.1-17.2 22.6-22.8 9.5-5.5 20.4-8.5 31.5-8.7 11.1-0.1 22 2.5 31.7 7.8 9.7 5.3 17.7 12.9 23.3 22.2 5.6 9.2 8.6 19.7 8.6 30.4z"/>
	<path id="Layer" class="s2" d="m79.4 65.5c4 4 15.6 19.4 15.6 19.4l-7.1 10.1-6.4-20.1z"/>
	<path id="Layer" class="s3" d="m91.6 114.9q-0.8 0.4-1.8 0.8-0.4 0.2-0.8 0.4-2.6 1.2-5.4 2.1c-1.4 0.5-2.9 0.9-4.4 1.3-8.7 2.2-17.7 2.6-26.6 1.2q-1.6-0.2-3.1-0.6c-3.8 2.5-7.3 4.7-9.6 5.6l0.2-1.5 0.8-6.5 1.8-15.1 7.2-6.7-16.1 1.2c0 0 1.7-22.7 8.3-27.4 6.6-4.6 13.5-8.8 13.5-8.8q1.3 0.8 2.7 1.2c2.3 0.6 4.7 0.8 7.1 0.6 2.8-0.1 5.7-2.6 5.8-2.7 0 0 4.5 0.8 8.2 5.5 1.9 2.4 3.3 5.2 4 8.1 0.9 3.5 2.6 11.5 4.4 21.2 1.3 6.3 2.6 13.2 3.8 20.1z"/>
	<path id="Layer" class="s4" d="m95 84.9l6.9 7.8 24.3-23.2 0.9-4.8 4.8-4-2.1 6.2v8c0 0-18.7 29.2-23.9 30.7-6 1.8-18-10.7-18-10.7z"/>
	<path id="Layer" class="s5" d="m77.4 92.8l5.4 12.8-7.3 3-5.6-13.1z"/>
	<path id="Layer" class="s6" d="m77.7 104c-0.9 0.7-2.2 0.5-3.9 0.6-2.3 0-4.4 0.9-6.1 2.3-2.2 1.8-8.5 6.6-14.8 10.9q-1.7 1.2-3.4 2.4c-3.8 2.5-7.2 4.6-9.6 5.5q-0.9 0.5-1.9 0.6c-3.2 0.1-3.9-6.5-4.1-11.7-0.1-1.7-0.1-3.3-0.1-4.4-0.2-4.6 0-13 0-13l16.1-1.3-1.7 10.8-0.3 1.9 4.9-1.7h0.1l17.2-6.2 1.1-1.9 0.8 1.8h0.1l7.3-0.9c0 0 0.1 2.8-1.7 4.3z"/>
	<path id="Layer" fill-rule="evenodd" class="s7" d="m69.1 52.2l1 3.7 1.1 4.1c-1.7 1.8-4 2.9-6.5 3.2-2.1 0.2-4.6-0.5-6.4-1.1q-1.3-0.5-2.7-1.2c2.6-2.4 4.4-5.5 5-8.9-1.4-0.9-2.5-2-3.4-3.4q-0.5-0.7-1-1.5-0.9-1.5-1.6-3.1c0 0 3.9 0.4 5.6-1.7 1.7-2.1-0.8-4.7-1-4.8 0.1 0 1.3 0.8 4.5-0.4 3.4-1.3 2.5-4.2 2.5-4.2 0 0 0.9 1.4 3.7 1.6 2.8 0.2 3.2-0.7 3.2-0.7v0.1c0.1 0.2 0.5 1 0.9 2.1 1.6 4.3 4.1 14-4.9 16.2zm-0.6 0.1q-0.3 0.1-0.6 0.2 0.6-0.1 1.1-0.3l-0.2 0.1h-0.2z"/>
	<path id="Layer" class="s8" d="m79.4 33.7c-3.7 3.3-5.3 2.4-5.4 2.3-0.4-1.1-0.8-1.9-0.9-2.1v-0.1c0 0-0.4 0.9-3.2 0.7-2.8-0.2-3.7-1.6-3.7-1.6 0 0 0.9 2.9-2.5 4.2-3.2 1.2-4.5 0.4-4.5 0.4 0.1 0.1 2.6 2.7 1 4.8-1.7 2.1-5.6 1.7-5.6 1.7q0.7 1.6 1.6 3.1 0.5 0.8 1 1.5c0 0-1.3 2.6-3.7 2.5-2.4 0-2.4-2.3-2.4-2.3 0 0-1.7 2.9-6.9 0.1-5.1-2.8-1.7-6.9-1.7-6.9 0 0-3.7-2.7-3.7-6.7 0-4.1 5.8-7.2 5.8-7.2 0 0-2.1-4.7 1.4-7.2 3.4-2.6 8.6-0.9 8.6-0.9 0 0-0.1-6 5.1-5.9 5.3 0.1 6.5 3.2 6.5 3.2 0 0 4.7-3.5 9.4-0.2 4.7 3.3 2.8 9.1 2.8 9.1 0 0 4.9 4.1 1 7.5z"/>
	<path id="Layer" class="s9" d="m70.1 55.9c-2.2-0.7-6.2-3.3-6.2-3.3q2.4 0.2 4.7-0.3h0.2l0.3-0.1z"/>
	<path id="Layer" class="s9" d="m52.9 106.9l-8.7 3 4-3.2 1.7-10.8 2.2-13.9c-1.5 18.7 0.8 24.9 0.8 24.9z"/>
</svg>